<svg xmlns="http://www.w3.org/2000/svg" width="559.438" height="194.469" viewBox="0 0 559.438 194.469">
  <defs>
    <style>
      .cls-1 {
        fill: #001024;
      }

      .cls-1, .cls-3 {
        fill-rule: evenodd;
      }

      .cls-2, .cls-3 {
        fill: #c3815b;
      }
    </style>
  </defs>
  <path class="cls-1" d="M264,174V69H241V174h23Zm43,0V155H264v19h43Zm-3-44V111H264v19h40Zm2-41V69H264V89h42Zm75.378,112.533a30.451,30.451,0,0,0,15.768-13.1q5.184-8.925,5.184-23.459V95.464H384.042L384,112h0c-0.36-1.162,1.577,2.942-1.11-2.432a28.851,28.851,0,0,0-11.016-12.233,31.549,31.549,0,0,0-16.488-4.174,37.108,37.108,0,0,0-14.976,2.95,34.246,34.246,0,0,0-11.664,8.276,36.59,36.59,0,0,0-7.488,12.521,45.542,45.542,0,0,0-2.592,15.543v3.31a47.289,47.289,0,0,0,2.448,15.472,37.322,37.322,0,0,0,7.056,12.449,31.834,31.834,0,0,0,11.16,8.275,35.182,35.182,0,0,0,14.616,2.95,31.385,31.385,0,0,0,16.128-3.957,27.184,27.184,0,0,0,10.584-11.442c1.126-5.738-1.018,5.83.342-.508h0l-0.414,7.416q0,6.909-2.736,11.3a16.342,16.342,0,0,1-8.568,6.548q-5.832,2.159-15.192,2.159-5.041,0-11.16-.5t-11.16-1.223v19.429q5.04,0.719,11.088,1.151t11.808,0.432Q370.792,205.706,381.378,201.533Zm-30.24-48.573a17.617,17.617,0,0,1-6.912-7.34,24.723,24.723,0,0,1-2.52-11.586,25.437,25.437,0,0,1,2.448-11.514,18.376,18.376,0,0,1,6.912-7.627,19.182,19.182,0,0,1,10.224-2.735,19.82,19.82,0,0,1,9.216,2.231,17.777,17.777,0,0,1,6.984,6.476,19.27,19.27,0,0,1,2.664,10.435v4.173a21.633,21.633,0,0,1-2.52,10.794,17.349,17.349,0,0,1-6.84,6.836A20.968,20.968,0,0,1,351.138,152.96Zm93.455-68.65a12.2,12.2,0,0,0,3.1-8.563,12.4,12.4,0,0,0-3.1-8.707q-3.1-3.38-9.576-3.382t-9.576,3.382a12.388,12.388,0,0,0-3.1,8.707,12.182,12.182,0,0,0,3.1,8.563q3.095,3.383,9.576,3.382T444.593,84.31ZM485,174l15.969-28.308L503,146l17,28h25l-25.6-41.117-0.576,3.022L540,96H517l-13.007,26.233h-2.3L488,96H463l22.561,39.617,0.576-3.6L462,174h23ZM416,95h33v79H426V112H416V95Z" transform="translate(-20.563 -29.969)"/>
  <rect class="cls-2" x="532.438" y="117.031" width="27" height="27" rx="3" ry="3"/>
  <path id="Color" class="cls-3" d="M108.435,29.983c5.424,0.616,19.269,10.572,24.225,13.55,2.615,1.571,6.879,2.561,8.443,5.127L29.885,112.383v36.256H30.62c8.11-7.141,19.974-11.194,29.364-16.846,22.53-13.56,45.933-25.891,68.639-39.552,9.346-5.623,19.109-10.753,28.63-16.48,4.781-2.876,10.306-7.859,16.15-9.156l19.454,11.353V92.241L43.1,178.669v0.366l38.174,22.34c2.488,0.565,5.471-2.753,6.974-3.662,7.207-4.362,14.608-8.21,21.656-12.452l82.954-47.242v36.622l-63.5,36.255c-6.038,3.633-17.731,13.006-25.327,13.551C85.068,213.461,69.4,204.67,50.44,193.684c-8.454-5.1-20.878-10.833-29.364-17.945V111.284c0-9.992-1.539-23.216.734-31.861L81.64,44.632Z" transform="translate(-20.563 -29.969)"/>
</svg>
