<svg width="18" height="16" viewBox="0 0 18 16" fill="none" xmlns="http://www.w3.org/2000/svg">
<path d="M17.9535 2.94694C17.8724 2.53821 17.6912 2.16419 17.4381 1.8552C17.3847 1.78787 17.3289 1.72758 17.2685 1.66729C16.8201 1.21666 16.1907 0.935547 15.5032 0.935547H2.49683C1.80928 0.935547 1.18216 1.21666 0.731637 1.66729C0.671344 1.72758 0.615586 1.78787 0.562078 1.8552C0.308848 2.16415 0.127617 2.53821 0.0487266 2.94694C0.0163125 3.10469 0 3.26771 0 3.43252V12.5673C0 12.9177 0.0743203 13.2546 0.206859 13.5588C0.329801 13.8492 0.511066 14.1119 0.731602 14.3323C0.7875 14.388 0.843012 14.4393 0.903586 14.4902C1.33552 14.848 1.89306 15.064 2.49683 15.064H15.5032C16.1072 15.064 16.6671 14.848 17.0966 14.488C17.157 14.4393 17.2127 14.388 17.2685 14.3323C17.4889 14.1119 17.6702 13.8492 17.7956 13.5588V13.5565C17.9281 13.2523 18 12.9177 18 12.5673V3.43252C18 3.26771 17.9839 3.10469 17.9535 2.94694ZM1.63508 2.57063C1.85815 2.34781 2.15772 2.21291 2.49683 2.21291H15.5032C15.8423 2.21291 16.1445 2.34781 16.3649 2.57063C16.4044 2.61032 16.4415 2.65455 16.4743 2.69849L9.65728 8.63972C9.46927 8.8045 9.23702 8.88589 9 8.88589C8.76537 8.88589 8.53327 8.8045 8.34275 8.63972L1.52831 2.69596C1.55848 2.65202 1.59564 2.61032 1.63508 2.57063ZM1.27737 12.5673V4.0178L6.21063 8.32145L1.27986 12.6205C1.27737 12.6042 1.27737 12.5859 1.27737 12.5673ZM15.5032 13.7864H2.49683C2.27602 13.7864 2.0694 13.7283 1.89306 13.6264L7.09541 9.09264L7.58109 9.51515C7.98753 9.86833 8.49614 10.0472 9 10.0472C9.50646 10.0472 10.015 9.86833 10.4214 9.51515L10.9069 9.09264L16.1072 13.6264C15.9306 13.7283 15.724 13.7864 15.5032 13.7864ZM16.7226 12.5673C16.7226 12.5859 16.7226 12.6042 16.7202 12.6205L11.7895 8.32395L16.7226 4.02009V12.5673Z" fill="#C3815B"/>
</svg>
