<svg width="25" height="25" viewBox="0 0 25 25" fill="none" xmlns="http://www.w3.org/2000/svg">
<path fill-rule="evenodd" clip-rule="evenodd" d="M17.1878 2.34375C15.3181 2.34375 13.8024 3.85945 13.8024 5.72917C13.8024 5.93324 13.8204 6.13308 13.8551 6.32721L8.92731 9.77665C8.90227 9.79417 8.87858 9.8129 8.85624 9.8327C8.2815 9.38278 7.55765 9.11458 6.77116 9.11458C4.90144 9.11458 3.38574 10.6303 3.38574 12.5C3.38574 14.3697 4.90144 15.8854 6.77116 15.8854C7.55765 15.8854 8.2815 15.6172 8.85624 15.1673C8.87858 15.1871 8.90227 15.2058 8.92731 15.2233L13.8551 18.6728C13.8204 18.8669 13.8024 19.0668 13.8024 19.2708C13.8024 21.1405 15.3181 22.6562 17.1878 22.6562C19.0575 22.6562 20.5732 21.1405 20.5732 19.2708C20.5732 17.4011 19.0575 15.8854 17.1878 15.8854C16.0912 15.8854 15.1163 16.4069 14.4976 17.2153L9.83164 13.9491C10.04 13.5098 10.1566 13.0185 10.1566 12.5C10.1566 11.9815 10.04 11.4902 9.83164 11.0509L14.4976 7.78469C15.1163 8.59315 16.0912 9.11458 17.1878 9.11458C19.0575 9.11458 20.5732 7.59889 20.5732 5.72917C20.5732 3.85945 19.0575 2.34375 17.1878 2.34375ZM15.3649 5.72917C15.3649 4.7224 16.1811 3.90625 17.1878 3.90625C18.1946 3.90625 19.0107 4.7224 19.0107 5.72917C19.0107 6.73594 18.1946 7.55208 17.1878 7.55208C16.1811 7.55208 15.3649 6.73594 15.3649 5.72917ZM6.77116 10.6771C5.76439 10.6771 4.94824 11.4932 4.94824 12.5C4.94824 13.5068 5.76439 14.3229 6.77116 14.3229C7.77793 14.3229 8.59408 13.5068 8.59408 12.5C8.59408 11.4932 7.77793 10.6771 6.77116 10.6771ZM17.1878 17.4479C16.1811 17.4479 15.3649 18.2641 15.3649 19.2708C15.3649 20.2776 16.1811 21.0938 17.1878 21.0938C18.1946 21.0938 19.0107 20.2776 19.0107 19.2708C19.0107 18.2641 18.1946 17.4479 17.1878 17.4479Z" fill="white"/>
</svg>
