<svg width="58" height="58" viewBox="0 0 58 58" fill="none" xmlns="http://www.w3.org/2000/svg">
<g clip-path="url(#clip0_515_1257)">
<path d="M57.0938 50.75H9.0625C8.56406 50.75 8.15625 50.3422 8.15625 49.8438V1.8125C8.15625 1.31225 7.75025 0.90625 7.25 0.90625C6.74975 0.90625 6.34375 1.31225 6.34375 1.8125V7.25H0.90625C0.406 7.25 0 7.656 0 8.15625C0 8.6565 0.406 9.0625 0.90625 9.0625H6.34375V49.8438C6.34375 51.3427 7.56356 52.5625 9.0625 52.5625H49.8438V58C49.8438 58.5003 50.2497 58.9062 50.75 58.9062C51.2503 58.9062 51.6562 58.5003 51.6562 58V52.5625H57.0938C57.594 52.5625 58 52.1565 58 51.6562C58 51.156 57.594 50.75 57.0938 50.75Z" fill="#C3815B"/>
<path d="M50.75 46.2188C51.2503 46.2188 51.6562 45.8128 51.6562 45.3125V9.96875C51.6562 8.46981 50.4364 7.25 48.9375 7.25H13.5938C13.0935 7.25 12.6875 7.656 12.6875 8.15625C12.6875 8.6565 13.0935 9.0625 13.5938 9.0625H48.9375C49.4359 9.0625 49.8438 9.47031 49.8438 9.96875V45.3125C49.8438 45.8128 50.2497 46.2188 50.75 46.2188Z" fill="#C3815B"/>
</g>
<defs>
<clipPath id="clip0_515_1257">
<rect width="58" height="58" fill="white"/>
</clipPath>
</defs>
</svg>
